<?xml version="1.0" encoding="UTF-8"?>
<svg width="600" height="300" viewBox="0 0 600 300" fill="none" xmlns="http://www.w3.org/2000/svg">
  <rect width="600" height="300" fill="#ECEFF1"/>
  <rect x="100" y="50" width="400" height="200" rx="15" fill="#607D8B"/>
  <rect x="120" y="80" width="360" height="40" rx="5" fill="#FFFFFF"/>
  <rect x="120" y="130" width="360" height="40" rx="5" fill="#FFFFFF"/>
  <rect x="120" y="180" width="360" height="40" rx="5" fill="#FFFFFF"/>
  <circle cx="140" cy="100" r="10" fill="#b42130"/>
  <circle cx="140" cy="150" r="10" fill="#1d923b"/>
  <circle cx="140" cy="200" r="10" fill="#1d923b"/>
  <rect x="160" y="90" width="200" height="20" fill="#B0BEC5"/>
  <rect x="160" y="140" width="250" height="20" fill="#B0BEC5"/>
  <rect x="160" y="190" width="180" height="20" fill="#B0BEC5"/>
  <circle cx="410" cy="100" r="15" fill="#b42130"/>
  <path d="M400 100 L420 100 M410 90 L410 110" stroke="#FFFFFF" stroke-width="2"/>
  <circle cx="410" cy="150" r="15" fill="#1d923b"/>
  <path d="M400 150 L420 150" stroke="#FFFFFF" stroke-width="2"/>
  <circle cx="410" cy="200" r="15" fill="#1d923b"/>
  <path d="M400 200 L420 200" stroke="#FFFFFF" stroke-width="2"/>
</svg>