<?xml version="1.0" encoding="UTF-8"?>
<svg width="400" height="400" viewBox="0 0 400 400" xmlns="http://www.w3.org/2000/svg">
  <!-- Fond transparent -->
  <rect width="400" height="400" fill="white" fill-opacity="0.05"/>
  
  <!-- Couleurs du drapeau camerounais -->
  <g opacity="0.05">
    <!-- Motifs verts -->
    <rect x="20" y="20" width="50" height="50" fill="#007a5e" rx="5"/>
    <rect x="100" y="100" width="30" height="30" fill="#007a5e" rx="3"/>
    <rect x="200" y="50" width="40" height="40" fill="#007a5e" rx="4"/>
    <rect x="300" y="150" width="45" height="45" fill="#007a5e" rx="5"/>
    <rect x="50" y="250" width="35" height="35" fill="#007a5e" rx="3"/>
    <rect x="180" y="280" width="25" height="25" fill="#007a5e" rx="2"/>
    <rect x="320" y="320" width="30" height="30" fill="#007a5e" rx="3"/>
    
    <!-- Motifs jaunes -->
    <rect x="150" y="20" width="40" height="40" fill="#fcd116" rx="4"/>
    <rect x="250" y="120" width="25" height="25" fill="#fcd116" rx="2"/>
    <rect x="70" y="170" width="35" height="35" fill="#fcd116" rx="3"/>
    <rect x="220" y="220" width="30" height="30" fill="#fcd116" rx="3"/>
    <rect x="120" y="330" width="40" height="40" fill="#fcd116" rx="4"/>
    <rect x="350" y="250" width="20" height="20" fill="#fcd116" rx="2"/>
    
    <!-- Motifs rouges -->
    <rect x="50" y="80" width="30" height="30" fill="#ce1126" rx="3"/>
    <rect x="280" y="40" width="25" height="25" fill="#ce1126" rx="2"/>
    <rect x="150" y="150" width="45" height="45" fill="#ce1126" rx="4"/>
    <rect x="270" y="230" width="30" height="30" fill="#ce1126" rx="3"/>
    <rect x="30" y="320" width="35" height="35" fill="#ce1126" rx="3"/>
    <rect x="380" y="180" width="20" height="20" fill="#ce1126" rx="2"/>
  </g>
  
  <!-- Petites étoiles -->
  <g opacity="0.1">
    <polygon points="50,50 53,57 60,57 55,62 57,69 50,65 43,69 45,62 40,57 47,57" fill="#fcd116"/>
    <polygon points="150,250 153,257 160,257 155,262 157,269 150,265 143,269 145,262 140,257 147,257" fill="#fcd116"/>
    <polygon points="320,100 323,107 330,107 325,112 327,119 320,115 313,119 315,112 310,107 317,107" fill="#fcd116"/>
    <polygon points="250,350 253,357 260,357 255,362 257,369 250,365 243,369 245,362 240,357 247,357" fill="#fcd116"/>
  </g>
  
  <!-- Lignes décoratives -->
  <g stroke-width="2" opacity="0.05">
    <line x1="0" y1="100" x2="400" y2="100" stroke="#007a5e"/>
    <line x1="0" y1="200" x2="400" y2="200" stroke="#fcd116"/>
    <line x1="0" y1="300" x2="400" y2="300" stroke="#ce1126"/>
    <line x1="100" y1="0" x2="100" y2="400" stroke="#007a5e"/>
    <line x1="200" y1="0" x2="200" y2="400" stroke="#fcd116"/>
    <line x1="300" y1="0" x2="300" y2="400" stroke="#ce1126"/>
  </g>
</svg>