<?xml version="1.0" encoding="UTF-8"?>
<svg width="400" height="300" xmlns="http://www.w3.org/2000/svg">
  <!-- Livre principal -->
  <rect x="100" y="80" width="200" height="160" rx="5" ry="5" fill="#60A5FA" />
  <rect x="105" y="85" width="190" height="150" rx="3" ry="3" fill="#93C5FD" />
  
  <!-- Pages du livre -->
  <path d="M200,85 L200,235 C200,235 260,225 295,235 L295,85 C295,85 260,75 200,85" fill="#EFF6FF" />
  <path d="M200,95 L200,225 M210,92 L210,222 M220,91 L220,221 M230,90 L230,220 M240,89 L240,219 M250,88 L250,218 M260,87 L260,217 M270,88 L270,218 M280,89 L280,219 M290,90 L290,220" stroke="#BFDBFE" stroke-width="1" />
  
  <!-- Titres sur le livre -->
  <rect x="220" y="110" width="60" height="10" rx="2" ry="2" fill="#3B82F6" />
  <rect x="220" y="130" width="40" height="10" rx="2" ry="2" fill="#3B82F6" />
  <rect x="220" y="150" width="50" height="10" rx="2" ry="2" fill="#3B82F6" />
  <rect x="220" y="170" width="45" height="10" rx="2" ry="2" fill="#3B82F6" />
  
  <!-- Graphique simple -->
  <line x1="130" y1="200" x2="130" y2="120" stroke="#1E40AF" stroke-width="2" />
  <line x1="130" y1="200" x2="190" y2="200" stroke="#1E40AF" stroke-width="2" />
  <path d="M130,180 L145,160 L160,170 L175,130 L190,150" stroke="#1E40AF" stroke-width="2" fill="none" />
  <circle cx="145" cy="160" r="3" fill="#1E40AF" />
  <circle cx="160" cy="170" r="3" fill="#1E40AF" />
  <circle cx="175" cy="130" r="3" fill="#1E40AF" />
  <circle cx="190" cy="150" r="3" fill="#1E40AF" />
  
  <!-- Titre en bas -->
  <text x="200" y="270" font-family="Arial" font-size="18" font-weight="bold" fill="#1E40AF" text-anchor="middle">Gestion des Cours</text>
</svg>